<mxfile host="app.diagrams.net" modified="2024-05-26T17:14:30.987Z" agent="Mozilla/5.0 (Windows NT 10.0; Win64; x64; rv:126.0) Gecko/20100101 Firefox/126.0" version="24.3.0" etag="dnsmHqrYZDxOfNuRFPG8" type="github">
  <diagram name="Page-1" id="xJjRjmK1pY4yMjnOpRCv">
    <mxGraphModel>
      <root>
        <mxCell id="0" />
        <mxCell id="1" parent="0" />
      </root>
    </mxGraphModel>
  </diagram>
</mxfile>
